<?xml version="1.0" encoding="UTF-8"?>
<svg id="_图层_1" data-name="图层_1" xmlns="http://www.w3.org/2000/svg" version="1.1" viewBox="0 0 500 500">
  <!-- Generator: Adobe Illustrator 29.0.1, SVG Export Plug-In . SVG Version: 2.1.0 Build 192)  -->
  <defs>
    <style>
      .st0 {
        fill: #e0e0e0;
      }

      .st1 {
        isolation: isolate;
      }

      .st1, .st2 {
        opacity: .1;
      }

      .st3 {
        fill: #b78876;
      }

      .st4 {
        fill: #a36957;
      }

      .st5 {
        fill: #ebebeb;
      }

      .st6 {
        fill: #263238;
      }

      .st7 {
        fill: #d33d09;
      }

      .st8 {
        fill: #fff;
      }

      .st9 {
        fill: #fa672a;
      }

      .st10 {
        fill: #f0f0f0;
      }

      .st11 {
        fill: #fafafa;
      }

      .st12 {
        opacity: .2;
      }

      .st13 {
        opacity: .3;
      }

      .st14 {
        fill: #f5f5f5;
      }

      .st15 {
        fill: #ef4444;
      }

      .st16 {
        fill: #455a64;
      }
    </style>
  </defs>
  <g id="freepik--background-complete--inject-96">
    <path class="st5" d="M205.6,68l-95.2,123.7,256-63.6L223.9,63.4c-6.4-2.9-14-1-18.2,4.6Z"/>
    <path class="st0" d="M109.1,192.6l96.1-124.9c4.4-5.8,12.3-7.7,18.9-4.7l144,65.2L109.1,192.6ZM217.6,62.6c-4.5,0-8.8,2.1-11.5,5.7h0l-94.3,122.5,253.1-62.9L223.6,63.9c-1.9-.9-4-1.3-6.1-1.3h0Z"/>
    <path class="st10" d="M110.4,191.7l256.9-63.9h0l34.6,139.2c1.4,5.7-2.1,11.6-7.8,13l-236.1,58.7c-5.7,1.4-11.6-2.1-13-7.8l-34.6-139.2h0Z"/>
    <path class="st8" d="M351.5,135.4l-89,90.9-134.5-30.3-15.4-71.3c-1.8-7.7,2.9-15.3,10.6-17.2l194.6-48.4c7.7-1.9,15.5,2.8,17.4,10.5,0,0,0,0,0,0l16.3,65.8Z"/>
    <path class="st0" d="M250.3,219.2l-105.7,110.4h0c1.6,6.3,8,10.2,14.3,8.6,0,0,0,0,0,0l234.3-58.2c6.3-1.6,10.2-8,8.6-14.3l-.2-.9-138.2-48.8c-4.6-1.6-9.7-.4-13.1,3.1Z"/>
    <rect class="st0" x="140.2" y="127.4" width="78.4" height="8" transform="translate(-26.4 47.2) rotate(-14)"/>
    <rect class="st0" x="143.8" y="135.6" width="174.1" height="9.1" transform="translate(-27 59.9) rotate(-14)"/>
    <rect class="st0" x="149.2" y="157" width="174.1" height="9.1" transform="translate(-32 61.8) rotate(-14)"/>
    <polygon class="st0" points="323.1 164.6 317.8 169.9 176 206.9 157.5 202.6 156.8 200.6 325.2 158.7 325.9 161.6 323.1 164.6"/>
    <polygon class="st0" points="286.8 201.5 223 217.4 203.4 212.9 298.9 189.2 286.8 201.5"/>
    <path class="st11" d="M246.4,223.2s0,.1-.2.3l-.8.8-2.9,3.1-10.9,11.5c-9.2,9.7-22,23.1-36.2,37.8s-27.1,27.9-36.6,37.4c-4.7,4.7-8.6,8.5-11.3,11.2l-3.1,3-.8.8c0,0-.2.2-.3.2,0-.1.2-.2.2-.3l.8-.8,3-3.1,11.2-11.3c9.4-9.5,22.3-22.8,36.5-37.5s27-28,36.2-37.7l11-11.4,3-3.1.8-.8c.2-.2.3-.3.3-.3Z"/>
    <path class="st11" d="M401.6,264.8c0,.1-29.5-10.1-65.8-22.9s-65.7-23.2-65.6-23.4,29.5,10.1,65.8,22.8,65.7,23.2,65.6,23.4Z"/>
    <path class="st11" d="M355.8,131.1c0,0-.1.2-.2.2l-.6.7-2.4,2.6-8.8,9.6c-7.5,8.1-17.9,19.1-29.6,31.2s-22.5,22.8-30.3,30.6l-9.3,9.1-2.6,2.4-.7.6c-.2.1-.2.2-.2.2,0,0,.1-.2.2-.2l.6-.7,2.5-2.5,9.2-9.2c7.8-7.8,18.4-18.6,30.1-30.7s22.1-23,29.7-31l9-9.5,2.5-2.6.6-.7c0,0,.1-.2.2-.2Z"/>
    <path class="st11" d="M246.4,223.2c-.1,0-.2,0-.4,0l-1-.2-4-1c-3.4-.9-8.4-2.1-14.5-3.5-12.3-2.9-29.3-6.7-48.2-10.7s-35.9-7.9-48.1-10.9c-6.1-1.5-11.1-2.8-14.5-3.7l-3.9-1.1-1-.3c-.1,0-.2,0-.3-.1h.3c0,0,1,.3,1,.3l4,1c3.4.9,8.4,2.1,14.5,3.5,12.3,2.9,29.3,6.7,48.2,10.7s35.9,7.9,48.1,10.9c6.1,1.5,11.1,2.8,14.5,3.7l3.9,1.1,1,.3h.3Z"/>
    <path class="st0" d="M351.5,135.4s-.1-.3-.3-1l-.7-2.8c-.6-2.5-1.6-6.2-2.8-10.9l-10.1-40.1c-.5-2.1-1.1-4.3-1.6-6.5-.3-1.1-.5-2.2-.8-3.4-.1-.6-.3-1.1-.5-1.7-.2-.6-.4-1.1-.6-1.6-2-4.6-6.3-7.7-11.2-8.3-1.3-.2-2.5-.2-3.8,0-1.3.2-2.5.6-3.8.9l-7.9,2-16.4,4.1-72.9,18.2-73,18.1-16.4,4.1-4,1c-1.3.3-2.6.7-3.8,1.2-2.4,1-4.4,2.7-5.9,4.8-.7,1-1.3,2.1-1.8,3.3-.4,1.2-.7,2.4-.8,3.6-.3,2.4.4,4.8.9,7.1,1,4.7,2,9.1,2.9,13.4,3.7,17.1,6.6,30.9,8.6,40.5,1,4.8,1.8,8.5,2.3,11,.2,1.2.4,2.2.6,2.9s.2,1,.2,1c0,0,0-.3-.2-1s-.4-1.6-.6-2.9c-.6-2.5-1.4-6.2-2.4-11-2.1-9.6-5.1-23.4-8.8-40.4-.9-4.3-1.9-8.7-2.9-13.4-.5-2.3-1.2-4.7-.9-7.3.1-1.3.4-2.5.8-3.7.5-1.2,1.1-2.4,1.8-3.4.8-1.1,1.7-2,2.7-2.9,1-.9,2.2-1.6,3.4-2.1,1.3-.5,2.5-.9,3.9-1.2l4-1,16.4-4.1,73-18.2,73-18.1,16.4-4.1,7.9-1.9c1.3-.3,2.5-.7,3.9-.9,3.9-.6,7.9.4,11,2.8,2,1.5,3.5,3.5,4.5,5.7.3.5.5,1.1.6,1.7.2.6.3,1.1.5,1.7.3,1.1.5,2.3.8,3.4.5,2.2,1.1,4.4,1.6,6.5l9.9,40.2c1.1,4.7,2,8.4,2.7,10.9.3,1.2.5,2.2.7,2.9s.1,1,.1,1Z"/>
  </g>
  <g id="freepik--Floor--inject-96">
    <path class="st6" d="M452,449c0,.1-90.4.3-202,.3s-202-.1-202-.3,90.4-.3,202-.3,202,.1,202,.3Z"/>
  </g>
  <g id="freepik--mail-sent--inject-96">
    <polygon class="st9" points="239.7 82.7 229.8 90.2 230.3 104.6 221.2 97.4 216.2 101.7 197.2 78.2 239.7 82.7"/>
    <path class="st15" d="M226.1,93.2c0,.4,4.2,11.3,4.2,11.3l-9.1-7.2,4.9-4.1Z"/>
    <g class="st13">
      <path d="M226.1,93.2c0,.4,4.2,11.3,4.2,11.3l-9.1-7.2,4.9-4.1Z"/>
    </g>
    <polygon class="st15" points="197.2 78.2 226.1 93.2 230.3 104.6 229.8 90.2 197.2 78.2"/>
    <polygon class="st1" points="197.2 78.2 226.1 93.2 230.3 104.6 229.8 90.2 197.2 78.2"/>
    <path class="st6" d="M277.2,272.2c-1.8,0-3.5-.5-5.1-1.2,1.8,0,3.5.5,5.1,1.2Z"/>
    <path class="st6" d="M285.4,274.2c0,.1-.8.1-1.6-.1s-1.5-.5-1.5-.6.8-.1,1.6.1,1.5.5,1.5.6Z"/>
    <path class="st6" d="M251.7,102.7c-.9,0-1.8-.1-2.6-.4-.9-.1-1.7-.4-2.5-.8.9-.1,1.8,0,2.6.3.9.1,1.7.4,2.5.9Z"/>
    <path class="st6" d="M261.4,106.8c-1.7-.6-3.3-1.3-4.7-2.4.9,0,1.8.4,2.5.9,1.3.7,2.3,1.4,2.2,1.5Z"/>
    <path class="st6" d="M269.7,113.2c-.1.1-1-.6-2.1-1.6s-2-1.7-1.9-1.9c.9.3,1.6.8,2.2,1.5,1.1,1,1.9,1.9,1.7,2Z"/>
    <path class="st6" d="M276.1,121.6c-.1,0-.8-.9-1.6-2.1-.6-.7-1-1.5-1.3-2.3.1,0,1,.8,1.8,2,.6.7,1,1.5,1.1,2.4Z"/>
    <path class="st6" d="M279.8,131.4c-.4-.8-.7-1.6-.9-2.5-.3-.8-.5-1.7-.5-2.6.5.7.9,1.6,1.1,2.4.3.8.5,1.7.4,2.6Z"/>
    <path class="st6" d="M280.3,141.9c-.2-.9-.2-1.8-.1-2.6,0-.9,0-1.8.2-2.6.3.8.4,1.7.3,2.6,0,.9,0,1.8-.4,2.6Z"/>
    <path class="st6" d="M277.6,152.1c.1-.9.4-1.7.7-2.5.2-.9.5-1.7,1-2.4,0,.9-.1,1.8-.5,2.6-.2.9-.6,1.7-1.2,2.3Z"/>
    <path class="st6" d="M271.5,160.6c-.1-.1.7-1,1.6-2.1s1.7-2,1.8-1.9c-.3.9-.8,1.6-1.4,2.2-1,1.1-1.9,1.8-2,1.7Z"/>
    <path class="st6" d="M262.6,166.3c.7-.6,1.4-1,2.3-1.4.7-.5,1.6-.9,2.4-1.1-.6.7-1.3,1.2-2.2,1.6-.8.5-1.6.8-2.5.9Z"/>
    <path class="st6" d="M252.4,168.5c.8-.3,1.7-.5,2.6-.5.9-.2,1.8-.3,2.6-.2-.8.4-1.7.7-2.6.7-.9.2-1.8.2-2.7,0Z"/>
    <path class="st6" d="M242.1,166.5c1.7.4,3.4.9,5,1.5-.9.1-1.8,0-2.6-.4-.9-.2-1.7-.6-2.4-1.2Z"/>
    <path class="st6" d="M234.8,159.3c.1,0,.6,1,1.4,2.2s1.6,2,1.5,2.1-1.1-.6-1.9-1.8c-.6-.7-1-1.6-1-2.5Z"/>
    <path class="st6" d="M239.2,151.1c0,.2-1.1.5-2.2,1.3s-1.8,1.8-1.9,1.7.3-1.3,1.6-2.2c.7-.6,1.6-.9,2.5-.9Z"/>
    <path class="st6" d="M248.3,154.9c-.1,0-.8-.9-1.8-1.9s-2.1-1.4-2-1.6c.9,0,1.8.5,2.4,1.2.7.6,1.2,1.4,1.4,2.3Z"/>
    <path class="st6" d="M248.6,165.1c0-.9.2-1.7.5-2.6,0-.9.2-1.7.5-2.6.3.9.3,1.8,0,2.7,0,.9-.4,1.8-1,2.5Z"/>
    <path class="st6" d="M241.8,172.9c0-.1.8-.9,1.9-1.8s2-1.7,2.1-1.6-.6,1.1-1.7,2-2.2,1.6-2.3,1.4Z"/>
    <path class="st6" d="M232.4,177.8c.7-.6,1.4-1.1,2.3-1.4.8-.5,1.6-.7,2.5-.9-1.4,1.1-3.1,1.8-4.8,2.2h0Z"/>
    <path class="st6" d="M223,182.6c0-.1.9-.8,2.1-1.6.7-.5,1.6-.9,2.5-1,0,.1-.9.8-2.2,1.5-.7.5-1.5.9-2.4,1.1Z"/>
    <path class="st6" d="M215,189.4c-.1-.1.6-1.1,1.6-2.1.6-.7,1.3-1.2,2.1-1.6.1.1-.7,1-1.7,2s-1.9,1.8-2,1.7Z"/>
    <path class="st6" d="M209,198.1c.2-.9.5-1.7,1.1-2.4.8-1.2,1.6-2.1,1.7-2.1-.3.8-.7,1.6-1.2,2.4-.8,1.2-1.4,2.2-1.5,2.1Z"/>
    <path class="st6" d="M205.2,207.9c0-.9.1-1.8.5-2.6.2-.9.6-1.7,1.1-2.4-.3,1.7-.8,3.4-1.6,5h0Z"/>
    <path class="st6" d="M203.8,218.3c-.4-1.8-.2-3.6.4-5.3.2.9.2,1.8,0,2.6,0,.9,0,1.8-.4,2.6Z"/>
    <path class="st6" d="M205.2,228.7c-.4-.8-.7-1.6-.8-2.5-.3-.9-.4-1.8-.2-2.6.4.8.6,1.7.8,2.5.3.8.4,1.7.3,2.6Z"/>
    <path class="st6" d="M209.2,238.4c-.1,0-.8-.9-1.5-2.2-.5-.8-.8-1.6-.9-2.5.6.7,1,1.4,1.3,2.3.5.7.8,1.6,1,2.4Z"/>
    <path class="st6" d="M215.6,246.9c-.1.1-1-.7-2-1.8-.6-.6-1.1-1.4-1.4-2.2.1-.1.9.8,1.9,1.9s1.7,2,1.6,2.1Z"/>
    <path class="st6" d="M223.7,253.6c-.9-.2-1.7-.7-2.3-1.3-1.2-.9-2-1.7-1.9-1.8.8.3,1.6.8,2.2,1.4,1.2.9,2.1,1.6,2,1.7Z"/>
    <path class="st6" d="M233.2,258.1c-.9,0-1.8-.2-2.6-.6-.9-.2-1.7-.7-2.3-1.3.9.1,1.7.4,2.5.8.8.3,1.7.6,2.4,1.2Z"/>
    <path class="st6" d="M238.5,259.5c0,.1,0,.3-.1.2s0-.1,0-.3,0-.3.1-.2,0,.1,0,.3Z"/>
    <rect class="st15" x="220.6" y="229.1" width="7.2" height="11.5" transform="translate(-68.9 374.6) rotate(-71.8)"/>
    <g class="st13">
      <rect x="220.6" y="229.1" width="7.2" height="11.5" transform="translate(-68.9 374.6) rotate(-71.8)"/>
    </g>
    <path class="st15" d="M230.8,233.3c-2,1-4.2,1.9-6.3,2.6h-.2c0,0-.1,0-.1,0l-.2-.2c-1.5-1.8-2.9-3.8-4.1-5.9,1.6,1.7,3.2,3.6,4.5,5.5l.2.2h-.3c2.1-1,4.3-1.7,6.5-2.2Z"/>
    <g class="st2">
      <path d="M230.8,233.3c-2,1-4.2,1.9-6.3,2.6h-.2c0,0-.1,0-.1,0l-.2-.2c-1.5-1.8-2.9-3.8-4.1-5.9,1.6,1.7,3.2,3.6,4.5,5.5l.2.2h-.3c2.1-1,4.3-1.7,6.5-2.2Z"/>
    </g>
    <path class="st15" d="M223,233.9c-.8.7-1.6,1.2-2.6,1.6-.9.5-1.8.9-2.8,1.1.8-.7,1.6-1.2,2.6-1.6.9-.5,1.8-.9,2.8-1.1Z"/>
    <g class="st2">
      <path d="M223,233.9c-.8.7-1.6,1.2-2.6,1.6-.9.5-1.8.9-2.8,1.1.8-.7,1.6-1.2,2.6-1.6.9-.5,1.8-.9,2.8-1.1Z"/>
    </g>
    <path class="st15" d="M228.8,240.1c-.6-.8-1.1-1.6-1.4-2.5-.7-1.5-1.1-2.8-.9-2.8.6.8,1.1,1.6,1.4,2.5.5.9.8,1.8.9,2.8Z"/>
    <g class="st2">
      <path d="M228.8,240.1c-.6-.8-1.1-1.6-1.4-2.5-.7-1.5-1.1-2.8-.9-2.8.6.8,1.1,1.6,1.4,2.5.5.9.8,1.8.9,2.8Z"/>
    </g>
    <rect class="st15" x="249.3" y="249.2" width="18.4" height="29.6" transform="translate(-73 427.2) rotate(-71.8)"/>
    <path class="st15" d="M275.4,259.9c-.4.2-.8.4-1.3.6l-3.5,1.4c-3,1.1-7.1,2.7-11.7,4.4h-.2c0,0-.1,0-.1,0l-.5-.6c-3.1-4-5.8-7.7-7.8-10.4l-2.3-3.2c-.3-.4-.6-.8-.8-1.2.4.3.7.7,1,1.1l2.4,3.1c2.1,2.6,4.9,6.3,7.9,10.3l.5.6h-.3c4.6-1.8,8.8-3.2,11.8-4.3l3.6-1.2c.4-.2.9-.3,1.3-.4Z"/>
    <g class="st12">
      <path d="M275.4,259.9c-.4.2-.8.4-1.3.6l-3.5,1.4c-3,1.1-7.1,2.7-11.7,4.4h-.2c0,0-.1,0-.1,0l-.5-.6c-3.1-4-5.8-7.7-7.8-10.4l-2.3-3.2c-.3-.4-.6-.8-.8-1.2.4.3.7.7,1,1.1l2.4,3.1c2.1,2.6,4.9,6.3,7.9,10.3l.5.6h-.3c4.6-1.8,8.8-3.2,11.8-4.3l3.6-1.2c.4-.2.9-.3,1.3-.4Z"/>
    </g>
    <path class="st15" d="M255.4,261.4c-2.2,1.4-4.5,2.6-6.8,3.6-2.3,1.2-4.6,2.3-7.1,3.1,2.2-1.4,4.5-2.6,6.8-3.6,2.3-1.2,4.6-2.3,7.1-3.1Z"/>
    <g class="st12">
      <path d="M255.4,261.4c-2.2,1.4-4.5,2.6-6.8,3.6-2.3,1.2-4.6,2.3-7.1,3.1,2.2-1.4,4.5-2.6,6.8-3.6,2.3-1.2,4.6-2.3,7.1-3.1Z"/>
    </g>
    <path class="st15" d="M270.1,277.6c-1.2-2.1-2.3-4.4-3.2-6.7-1.1-2.2-2-4.5-2.7-6.9,1.2,2.1,2.3,4.4,3.2,6.7,1.1,2.2,2,4.5,2.7,6.9Z"/>
    <g class="st12">
      <path d="M270.1,277.6c-1.2-2.1-2.3-4.4-3.2-6.7-1.1-2.2-2-4.5-2.7-6.9,1.2,2.1,2.3,4.4,3.2,6.7,1.1,2.2,2,4.5,2.7,6.9Z"/>
    </g>
    <path class="st6" d="M248.8,255c-2,1.4-4.7,1-6.1-.9-1.4-2-1-4.7.9-6.1,2-1.4,4.7-1,6.1.9,1.4,2,1,4.7-.9,6.1,0,0,0,0,0,0Z"/>
    <path class="st8" d="M249,250.6c-.9.7-1.9,1.3-2.9,1.8l-.7.4h-.1c0,0,0,0,0,0-.5-.8-.9-1.5-1.2-2.4.6.7,1,1.4,1.4,2.2h-.2c0,0,.7-.5.7-.5,1-.6,2-1.1,3.1-1.6Z"/>
    <rect class="st15" x="243.6" y="230.7" width="9.6" height="15.5" transform="translate(-55.6 400.1) rotate(-71.8)"/>
    <g class="st12">
      <rect x="243.6" y="230.7" width="9.6" height="15.5" transform="translate(-55.6 400.1) rotate(-71.8)"/>
    </g>
    <path class="st15" d="M257.3,236.3c-.2.1-.4.2-.6.3l-1.8.7c-1.6.6-3.7,1.4-6.1,2.3h-.2c0,0-.2-.4-.2-.4-1.6-2.1-3-4.1-4.1-5.5l-1.2-1.6c-.2-.2-.3-.4-.4-.6.2.2.4.4.5.6l1.3,1.6c1.1,1.4,2.5,3.3,4.1,5.4l.2.3h-.2c2.4-.9,4.6-1.7,6.2-2.2l1.9-.6c.2-.1.4-.2.7-.2Z"/>
    <g class="st12">
      <path class="st15" d="M257.3,236.3c-.2.1-.4.2-.6.3l-1.8.7c-1.6.6-3.7,1.4-6.1,2.3h-.2c0,0-.2-.4-.2-.4-1.6-2.1-3-4.1-4.1-5.5l-1.2-1.6c-.2-.2-.3-.4-.4-.6.2.2.4.4.5.6l1.3,1.6c1.1,1.4,2.5,3.3,4.1,5.4l.2.3h-.2c2.4-.9,4.6-1.7,6.2-2.2l1.9-.6c.2-.1.4-.2.7-.2Z"/>
    </g>
    <path class="st15" d="M246.8,237.1c-1.1.7-2.3,1.3-3.6,1.9-1.2.6-2.4,1.2-3.7,1.6,1.1-.7,2.3-1.4,3.6-1.9,1.2-.6,2.4-1.2,3.7-1.6Z"/>
    <g class="st12">
      <path class="st15" d="M246.8,237.1c-1.1.7-2.3,1.3-3.6,1.9-1.2.6-2.4,1.2-3.7,1.6,1.1-.7,2.3-1.4,3.6-1.9,1.2-.6,2.4-1.2,3.7-1.6Z"/>
    </g>
    <path class="st15" d="M254.6,245.6c-.6-1.1-1.2-2.3-1.7-3.5-.6-1.2-1-2.4-1.4-3.6,1.2,2.3,2.2,4.7,3.1,7.1h0Z"/>
    <g class="st12">
      <path class="st15" d="M254.6,245.6c-.6-1.1-1.2-2.3-1.7-3.5-.6-1.2-1-2.4-1.4-3.6,1.2,2.3,2.2,4.7,3.1,7.1h0Z"/>
    </g>
    <path class="st6" d="M139,121.6c-2.8,11.2-14.2,17.9-25.4,15.1-11.2-2.8-17.9-14.2-15.1-25.4,2.8-11.2,14.2-17.9,25.4-15.1,11.2,2.8,17.9,14.2,15.1,25.4Z"/>
    <path class="st8" d="M126.5,105.1c.4.2-2,7.1-5.3,15.6-.5,1.2-1,2.4-1.4,3.6l-.2.6-.6-.2c-6.8-2.6-11.7-4.8-11.6-5.1s5.3,1.3,12.1,3.8l-.9.4c.4-1.2.9-2.3,1.4-3.6,3.3-8.5,6.3-15.2,6.6-15.1Z"/>
  </g>
  <path class="st15" d="M395.6,417.1c3.7-1.8,7.9-2.3,12-1.5,2.2.4,4.5,1,5.9,2.6s1.8,4.5,0,5.9c-1.1.7-2.4,1.1-3.7,1-3.2,0-6.7-.6-9.2,1.3-1.5,1.1-2.4,2.9-4.1,3.4-1.8.4-3.6-.4-4.5-2-.8-1.6-1-3.4-.5-5.2.4-2.4,1.9-4.5,4.1-5.7Z"/>
  <g class="st12">
    <path class="st8" d="M395.6,417.1c3.7-1.8,7.9-2.3,12-1.5,2.2.4,4.5,1,5.9,2.6s1.8,4.5,0,5.9c-1.1.7-2.4,1.1-3.7,1-3.2,0-6.7-.6-9.2,1.3-1.5,1.1-2.4,2.9-4.1,3.4-1.8.4-3.6-.4-4.5-2-.8-1.6-1-3.4-.5-5.2.4-2.4,1.9-4.5,4.1-5.7Z"/>
  </g>
  <path class="st15" d="M387.3,400.9c2.2,3.2,6.6,2.1,8.6.2s2.9-4.8,3.6-7.5c1.8-6.1,3.5-12.6,2.2-18.9-.3-1.9-1.2-3.7-2.4-5.1-1.3-1.5-3.3-2.1-5.2-1.7-2.2.6-3.5,2.7-4.5,4.8-2.9,6-4.4,12.6-4.4,19.3,0,3.1.4,6.4,2.1,8.9"/>
  <path class="st15" d="M381.1,405.5c2.4-2.9,2.9-7.1,1.8-10.7-1.2-3.6-3.4-6.8-6.3-9.2-3.3-2.9-7.2-5.2-11.3-6.6-1.6-.7-3.4-1-5.1-.9-1.8.1-3.4,1.1-4.3,2.6-1.2,2.3,0,5,1.2,7.3,2.2,4,4.7,7.8,7.4,11.3,2.2,2.9,4.8,5.7,8.2,7s6.9,1.1,8.7-1.2"/>
  <g class="st2">
    <path class="st7" d="M381.1,405.5c2.4-2.9,2.9-7.1,1.8-10.7-1.2-3.6-3.4-6.8-6.3-9.2-3.3-2.9-7.2-5.2-11.3-6.6-1.6-.7-3.4-1-5.1-.9-1.8.1-3.4,1.1-4.3,2.6-1.2,2.3,0,5,1.2,7.3,2.2,4,4.7,7.8,7.4,11.3,2.2,2.9,4.8,5.7,8.2,7s6.9,1.1,8.7-1.2"/>
  </g>
  <path class="st6" d="M387.1,449.1c.1-.5.2-1,.2-1.5.1-1.1.2-2.4.4-4,.2-1.9.5-3.9.9-5.8.5-2.3,1.2-4.6,2.1-6.9.9-2.2,2-4.3,3.5-6.2,1.2-1.5,2.7-2.8,4.4-3.7,1.2-.6,2.4-1,3.7-1.2.5,0,1,0,1.4-.2-.5,0-1,0-1.5,0-1.3.1-2.7.4-3.9,1-1.8.9-3.4,2.1-4.7,3.7-1.5,1.9-2.7,4-3.6,6.3-.9,2.3-1.6,4.6-2.1,7-.4,1.9-.6,3.9-.8,5.9-.1,1.7-.2,3-.2,4,0,.5,0,1,0,1.4Z"/>
  <path class="st6" d="M387.4,446c0-.2,0-.4,0-.7v-1.9c0-1.7,0-4.1,0-7.1.1-6,.7-14.2,1.7-23.3s2.3-17.2,3.5-23c.3-1.5.6-2.8.8-3.9s.5-2.2.7-3,.3-1.4.5-1.9c0-.2.1-.4.1-.7-.1.2-.2.4-.2.6l-.6,1.9c-.2.8-.5,1.8-.8,2.9s-.6,2.5-.9,3.9c-1.6,7.6-2.9,15.3-3.7,23-1,9.1-1.4,17.3-1.5,23.3,0,3,0,5.4.1,7.1,0,.8,0,1.4.1,1.9,0,.2,0,.5,0,.7Z"/>
  <path class="st6" d="M387.4,430.1c0-.7,0-1.3,0-2-.1-1.8-.3-3.6-.6-5.4-1-6-2.7-11.8-5.1-17.3-2.3-5.6-5.6-10.8-9.7-15.2-.7-.8-1.5-1.5-2.3-2.1-.4-.3-.7-.6-1-.8l-.9-.6c-.5-.4-1.1-.8-1.7-1.1,1.9,1.5,3.8,3.2,5.5,5,4,4.5,7.2,9.6,9.5,15.1,1.3,3,2.4,6.1,3.3,9.3.9,2.9,1.5,5.6,1.9,7.9s.6,4.1.8,5.4c0,.7.1,1.3.2,2Z"/>
  <g id="freepik--Device--inject-96">
    <polygon class="st16" points="235.4 298.2 277.2 298.2 293.8 251.9 291.5 251.9 275 296 235.4 296.2 235.4 298.2"/>
  </g>
  <g id="freepik--Desk--inject-96">
    <polygon class="st6" points="216.9 304.1 218.4 449.2 222.7 449.2 220.9 303 216.9 304.1"/>
    <path class="st6" d="M306.5,302.7c-.6,2.8,3.8,146.8,3.8,146.8h4l-3.2-146.8h-4.6Z"/>
    <polygon class="st6" points="355.4 298.2 177.4 298.2 177.4 305.6 192.1 305.6 182.5 448.7 186.7 449 196.3 305.6 340.4 305.6 347.4 449 351.6 449 344.6 305.6 355.4 305.6 355.4 298.2"/>
  </g>
  <g id="freepik--Character--inject-96">
    <path class="st9" d="M255,443.7v-11l-20.6-.2-.2,16.1h1.3c5.7.5,28.9,1.6,32.7.5,4.2-1.2-13.2-5.4-13.2-5.4Z"/>
    <path class="st14" d="M241.6,448.5c-.3-1.7-1.2-3.3-2.6-4.4-1.4-1.1-3.1-1.6-4.8-1.5v5.8c0,0,7.4.2,7.4.2Z"/>
    <path class="st14" d="M263.5,446s6.1,1.8,5.3,2.8-24.3.8-34.7-.3v-.5l27.4.5s.7-2.6,1.9-2.6Z"/>
    <path class="st6" d="M233.9,448.1h1.4c0,0,3.7.3,3.7.3,3.2.1,7.5.3,12.4.4,4.8,0,9.2,0,12.4,0h3.8c0-.1,1-.2,1-.2h.4c-.1,0-.2,0-.4,0h-17.1c-4.8,0-9.2-.2-12.4-.3h-3.8c0-.1-1-.1-1-.1h-.4Z"/>
    <path class="st6" d="M261.6,449c.2-.6.4-1.2.7-1.8.4-.5.8-1,1.3-1.4-1.3.5-2.1,1.8-2,3.2h0Z"/>
    <path class="st6" d="M255.6,445.9c0,0,.4-.3.7-.8.3-.5.5-.9.5-.9s-.4.3-.7.8c-.2.3-.4.6-.5.9Z"/>
    <path class="st6" d="M253.9,445c0,0,.4-.2.7-.5s.6-.6.6-.7-.4.2-.7.5-.6.6-.6.7Z"/>
    <path class="st6" d="M252.9,443c.3.1.7.2,1.1.1.4,0,.7,0,1.1-.1-.3-.1-.7-.2-1.1-.1-.4,0-.7,0-1.1.1Z"/>
    <path class="st6" d="M252.5,441.6c.7.4,1.6.5,2.4.2-.8,0-1.6-.1-2.4-.2Z"/>
    <path class="st6" d="M256.3,444.1c.4,0,.9,0,1.3,0,.5,0,1-.1,1.4-.3.3,0,.6-.2.8-.3.2,0,.3-.2.3-.4,0-.2,0-.4-.2-.5-1-.5-2.3-.2-3,.7-.2.3-.4.6-.5.9v.4c.1-.4.3-.8.6-1.1.3-.3.7-.6,1.1-.7.5-.2,1.1-.1,1.6.1.2.2.1.4-.1.5-.2.1-.5.2-.8.3-.4.1-.9.3-1.4.3-.8.1-1.3.1-1.3.2Z"/>
    <path class="st6" d="M256.6,444.1c.2-.3.2-.6.2-.9,0-.4-.2-.7-.4-1-.2-.4-.6-.7-1.1-.7-.3,0-.5.3-.4.6,0,.2,0,.4.2.6.2.3.4.6.6.8.2.2.5.4.8.5,0,0-.3-.2-.6-.7-.2-.2-.4-.5-.5-.8-.2-.3-.3-.8,0-.8s.7.3.9.6c.2.3.3.6.4.9,0,.3,0,.6,0,.9Z"/>
    <path class="st6" d="M234.4,442.5s.6,0,1.5,0c1.2.2,2.4.6,3.3,1.4.9.8,1.6,1.8,2,3,.3.9.3,1.5.4,1.5s0-.1,0-.4c0-.4-.1-.8-.2-1.1-.7-2.5-2.9-4.3-5.5-4.5-.4,0-.8,0-1.1,0-.1,0-.2,0-.3,0Z"/>
    <path class="st6" d="M236.6,434c-.2,2.8-.3,5.6-.2,8.5.2-1.4.2-2.8.2-4.2,0-1.4,0-2.8,0-4.2Z"/>
    <path class="st6" d="M244.2,446.5c1,.2,2,.4,3,.3,1,0,2,0,3-.2,0,0-1.4,0-3,0s-3-.2-3-.1Z"/>
    <path class="st6" d="M240.2,446.5s.1.3.2.6.2.6.3.6.1-.3,0-.7-.4-.5-.5-.5Z"/>
    <path class="st6" d="M238.7,444.6s0,.3.3.5.4.4.5.3,0-.3-.3-.5-.4-.4-.5-.3Z"/>
    <path class="st6" d="M236.5,443.7c0,0,.3,0,.6.2s.5.3.6.2-.1-.3-.5-.5-.7,0-.7,0Z"/>
    <path class="st6" d="M235,443.3c0,0,0,.2.3.2s.3,0,.4,0,0-.2-.3-.2-.4,0-.4,0Z"/>
    <path class="st9" d="M295.5,432.6l-4.5-10.1-18.9,8.3,6.4,14.8,1.2-.4c5.3-2,27-10.5,30-13.1,3.4-2.9-14.2.5-14.2.5Z"/>
    <path class="st14" d="M285.4,442.5c-1-1.5-2.5-2.6-4.2-3-1.7-.4-3.5-.2-5,.6l2.3,5.3,6.9-2.8Z"/>
    <path class="st14" d="M304.2,431.2s6.3-.9,6,.4-21.8,10.7-31.7,14v-.4c-.1,0,25.1-10.8,25.1-10.8,0,0-.4-2.6.6-3.2Z"/>
    <path class="st6" d="M278.1,445.3h.3c0-.1,1-.5,1-.5l3.5-1.4c2.9-1.2,7-2.8,11.4-4.8s8.4-3.8,11.2-5.1l3.4-1.6.9-.5c.1,0,.2-.1.3-.2h-.3c0,.1-.9.6-.9.6l-3.4,1.6c-2.9,1.3-6.9,3.1-11.3,5.1s-8.5,3.6-11.4,4.8l-3.5,1.4-.9.4-.4.2Z"/>
    <path class="st6" d="M303.8,434.7c-.1-.6-.1-1.3,0-1.9.1-.6.3-1.2.6-1.8-.5.5-.8,1.1-.8,1.8-.1.7,0,1.4.3,2Z"/>
    <path class="st6" d="M297,434.3c0,0,.2-.4.3-1s.1-1,0-1-.2.4-.3,1c0,.3,0,.7,0,1Z"/>
    <path class="st6" d="M295.1,434.2c0,0,.3-.3.5-.7s.3-.8.2-.8-.3.3-.5.7-.3.8-.2.8Z"/>
    <path class="st6" d="M293.3,432.8c.4,0,.7-.1,1-.3.5-.2,1-.5.9-.5s-.5,0-1,.3-1,.5-.9.5Z"/>
    <path class="st6" d="M292.5,431.7c.4,0,.9,0,1.2-.2.4-.1.8-.3,1.1-.6-.4.1-.8.2-1.1.4-.4,0-.8.2-1.1.4Z"/>
    <path class="st6" d="M296.9,432.4c.4-.1.8-.3,1.2-.5.4-.2.8-.5,1.2-.9.2-.2.4-.4.6-.6.1-.1.2-.3.1-.5,0-.2-.2-.4-.4-.4-1.3,0-2.5,1-2.5,2.3,0,.2,0,.3,0,.5,0,.1,0,.2.1.4,0-.4,0-.9.1-1.3.1-.4.4-.8.7-1.1.4-.4.9-.6,1.5-.5.3,0,.3.3.1.5-.2.2-.3.4-.5.6-.3.3-.7.6-1.1.9-.7.5-1.1.7-1.1.7Z"/>
    <path class="st6" d="M297.2,432.3c0-.3,0-.6-.2-.9-.2-.3-.4-.6-.7-.8-.4-.3-.9-.3-1.3-.2-.2.2-.3.5-.1.7.1.2.3.3.4.5.3.2.6.4.9.5.3.1.6.2.9.2,0,0-.3-.1-.8-.4-.3-.1-.6-.3-.8-.5-.3-.2-.6-.6-.3-.8.3,0,.7,0,1,.2.3.2.5.4.7.6.2.3.3.5.4.8Z"/>
    <path class="st6" d="M276.2,440s.5-.3,1.4-.6c2.4-.7,5,0,6.7,1.8.6.7.9,1.2,1,1.2,0-.1,0-.3-.2-.4-.2-.3-.4-.6-.6-.9-.8-1-1.9-1.7-3.1-2-1.2-.3-2.5-.3-3.7.1-.3.1-.7.3-1,.5-.3.1-.4.3-.4.3Z"/>
    <path class="st6" d="M274.8,431.3c.4,1.4.9,2.7,1.5,4,.5,1.3,1.1,2.6,1.8,3.9-.4-1.3-.9-2.7-1.5-4-.5-1.3-1.1-2.6-1.8-3.9Z"/>
    <path class="st6" d="M286.9,439.6c1-.2,2-.5,2.9-.9.9-.4,1.8-.8,2.7-1.4,0,0-1.2.5-2.8,1.2s-2.8,1.1-2.8,1.2Z"/>
    <path class="st6" d="M283.2,441.2c0,0,.2.2.5.5s.4.5.5.4,0-.3-.3-.6-.6-.3-.6-.3Z"/>
    <path class="st6" d="M281.1,440.1c0,0,.2.2.5.3s.5.1.6,0-.2-.2-.5-.3-.5-.2-.6,0Z"/>
    <path class="st6" d="M278.7,440.2c0,0,.3,0,.6,0s.6,0,.6,0-.2-.3-.6-.2-.6.2-.6.3Z"/>
    <path class="st6" d="M277.1,440.4c0,0,.2.1.3.1s.3,0,.3-.1-.2-.1-.3-.1-.3,0-.3.1Z"/>
    <path class="st9" d="M108.5,359.1l-14.9-111.2c-.3-2.6,1.5-4.9,4-5.3.3,0,.6,0,1,0l35.9,3c3.3.3,5.9,2.9,6.2,6.2l8.7,105.3-40.9,2Z"/>
    <g class="st12">
      <path d="M108.5,359.1l-14.9-111.2c-.3-2.6,1.5-4.9,4-5.3.3,0,.6,0,1,0l35.9,3c3.3.3,5.9,2.9,6.2,6.2l8.7,105.3-40.9,2Z"/>
    </g>
    <path class="st6" d="M143.1,195.7c-.3-4.2-1.4-8.4-2-12.6s-.7-8.6.9-12.5c2.1-4.4,5.8-7.8,10.3-9.5,4.5-1.6,9.4-2.2,14.2-1.6.9,0,1.7.2,2.5.6.8.4,1.3,1.1,1.4,2,0,.9-.6,1.6-1.5,1.6,0,0,0,0-.1,0,1.8.2,3.6.6,5.4,1.1.7.2,1.3.6,1.7,1.2.3.8.3,1.7-.2,2.4-.5.7-1.1,1.2-1.8,1.7.9-.2,1.8.4,1.9,1.3,0,0,0,0,0,0,.1.9-.1,1.8-.7,2.5-.5.7-1.2,1.3-1.7,2-2.2,2.9-1.7,6.9-1.2,10.4"/>
    <path class="st3" d="M143.5,220.6l20.2-.4c.3-2.3.7-11.4.7-11.4,0,0,8.4-.8,9.1-9.1s.4-27.7.4-27.7h0c-9.4-4.8-20.7-4-29.4,1.9l-1.3.9.4,45.9Z"/>
    <path class="st6" d="M171,186.4c-.5-.5-.5-1.3,0-1.7.5-.5,1.3-.5,1.7,0,.5.5.5,1.2,0,1.7-.5.5-1.2.5-1.7,0,0,0,0,0,0,0Z"/>
    <path class="st6" d="M173.1,184.4c-.1.1-.9-.5-2.1-.6s-2,.5-2.1.3,0-.3.5-.6c1.1-.7,2.4-.6,3.4.2.3.3.4.6.4.6Z"/>
    <path class="st6" d="M159.8,184.6c.6.4.7,1.1.3,1.7-.4.6-1.1.7-1.7.3s-.7-1.1-.3-1.7c0,0,0,0,0,0,.4-.5,1.1-.7,1.7-.3,0,0,0,0,0,0Z"/>
    <path class="st6" d="M160.6,184.7c-.1.1-.9-.6-2.1-.6s-2,.5-2.1.3,0-.3.5-.6c1.1-.7,2.4-.6,3.4.2.3.3.4.6.4.6Z"/>
    <path class="st6" d="M164.6,194.5c.6-.2,1.2-.3,1.9-.3.3,0,.6,0,.6-.2,0-.3,0-.6-.2-.9-.2-.8-.5-1.6-.8-2.4-1.1-3.4-1.8-6.2-1.6-6.3s1.2,2.7,2.2,6.1c.2.8.5,1.6.7,2.4.2.4.2.8,0,1.3-.1.2-.3.4-.6.4-.2,0-.3,0-.5,0-.6,0-1.3,0-1.9-.2Z"/>
    <path class="st8" d="M160.8,195.5c-1.1-.8,3.2,2,5.6,2-.9,1.2-2.5,1.6-3.8,1-2.5-1.1-1.7-3-1.7-3Z"/>
    <path class="st4" d="M164.4,208.6c-3.9-.2-7.6-1.5-10.7-3.8,0,0,2.2,6.2,10.6,5.9v-2.2Z"/>
    <path class="st6" d="M142.8,181l.4,10.9s3.8-1.2,4.1-1.3,0-13.3,0-13.3c0,0-.5-5,2.7-6.1,3.4-1.2,4.9,1.2,9.7,2,15.9,2.7,14.8-2.2,14.8-2.2,0,0,2-2.1-2.1-4.5s-14.3-3.2-19.9-1.2c-11,3.8-11.7,7.6-11.7,10.9,0,4.7,2,4.9,2,4.9Z"/>
    <path class="st3" d="M144.7,182.1c-.2,0-6.2-.9-5.6,6.3s7.6,4.2,7.6,4-1.9-10.3-1.9-10.3Z"/>
    <path class="st4" d="M144.2,190s-.1.1-.3.2c-.3.1-.6.2-.9,0-1-.5-1.6-1.5-1.6-2.6,0-.6,0-1.2.2-1.8.1-.5.4-.8.9-1,.3,0,.6,0,.8.3.1.2,0,.3.1.4s.1-.1,0-.4c0-.2-.2-.3-.3-.4-.2-.1-.5-.2-.7-.1-.6.2-1,.6-1.2,1.2-.3.6-.3,1.3-.3,2,.2,1.4,1,2.7,2,2.9.4,0,.8,0,1.1-.3.3-.2.3-.3.3-.4Z"/>
    <path class="st3" d="M224.1,278s10-.5,12,.4c3.5,1.5,13.8,17.7,13.2,17.7h-4.8l-16-6.1-3.8,1-.7-13Z"/>
    <path class="st6" d="M267.1,324.4s29.9,103.6,30,103.1-26.8,12.9-26.8,12.9l-18.1-74.9,15-41.1Z"/>
    <polygon class="st16" points="269.7 441 298 427.2 296.8 423.4 268.2 437.3 269.7 441"/>
    <path class="st16" d="M265.9,402.9c-.1,0-.5-.6-.7-1.4s-.3-1.6-.2-1.6.5.6.7,1.4.3,1.6.2,1.6Z"/>
    <path class="st16" d="M267.8,409c-.1,0-.5-.6-.7-1.4s-.4-1.5-.2-1.6.5.6.7,1.4.3,1.5.2,1.6Z"/>
    <path class="st16" d="M269.7,415c-.1,0-.5-.6-.8-1.4s-.4-1.5-.2-1.6.5.6.8,1.4.4,1.6.2,1.6Z"/>
    <path class="st16" d="M271.7,421c-.1,0-.5-.6-.8-1.4s-.4-1.5-.2-1.6.5.6.8,1.4.4,1.6.2,1.6Z"/>
    <path class="st16" d="M273.8,427c-.1,0-.5-.6-.8-1.4s-.4-1.5-.3-1.6.5.6.8,1.4.4,1.5.3,1.6Z"/>
    <path class="st16" d="M276,432.9c-.1,0-.5-.6-.8-1.4s-.4-1.5-.3-1.6.5.6.8,1.4.5,1.5.3,1.6Z"/>
    <path class="st16" d="M274.4,435.4c-.2-.3-.4-.7-.6-1.1-.4-.7-.8-1.8-1.4-3.1-1.1-2.6-2.5-6.3-3.9-10.4s-2.5-7.9-3.4-10.6c-.4-1.3-.7-2.4-1-3.2-.1-.4-.2-.8-.3-1.2.2.4.4.7.5,1.1.3.8.7,1.8,1.1,3.2l3.5,10.5c1.4,4.1,2.7,7.8,3.7,10.5l1.2,3.1c.2.4.3.8.4,1.2Z"/>
    <path class="st6" d="M127.5,317.2c.2-5.5-2.9,30.1,24.5,31.1s83.3.5,83.3.5l-6.6,90.3h32.8l6.9-96.1s3.5-27.8-15.6-31.4c-11.9-2.2-86.1-2.9-86.1-2.9l-39.4,8.5Z"/>
    <polygon class="st16" points="228 439.3 262.6 439.3 262.6 433.9 228 434 228 439.3"/>
    <path class="st16" d="M173.9,344c.1,0,.2,0,.4,0h1c0,0,4-.2,4-.2l14.9-.6,50.1-1.7h.3v.3c-.4,3.7-.8,7.6-1.1,11.5-.4,5.6-.9,11.2-1.3,16.5s-1,10.4-1.5,15.3c-1,9.7-1.9,18.5-2.7,25.9s-1.4,13.3-1.9,17.5c-.2,2-.4,3.6-.5,4.8,0,.5-.1.9-.1,1.2,0,.1,0,.3,0,.4,0-.1,0-.3,0-.4,0-.3,0-.7.1-1.2.1-1.1.2-2.7.4-4.8.4-4.1,1-10.1,1.7-17.5s1.6-16.2,2.6-25.9c.5-4.9,1-10,1.5-15.3s.8-10.8,1.3-16.5c.3-4,.7-7.9,1.2-11.5l.3.3-50.1,1.5-14.9.4h-4c0,0-1,0-1,0-.1,0-.3,0-.4,0Z"/>
    <path class="st16" d="M177.1,340.1c0,.1-.7.3-1.6.3s-1.6,0-1.6-.2.7-.3,1.6-.3,1.6,0,1.6.2Z"/>
    <path class="st16" d="M183.4,339.9c0,.1-.7.3-1.6.3s-1.6,0-1.6-.2.7-.3,1.6-.3,1.6,0,1.6.2Z"/>
    <path class="st16" d="M189.7,339.8c0,.2-.7.3-1.6.3s-1.6,0-1.6-.2.7-.3,1.6-.3,1.6,0,1.6.2Z"/>
    <path class="st16" d="M196.1,339.6c0,.2-.7.3-1.6.3s-1.6,0-1.6-.2.7-.3,1.6-.3,1.6,0,1.6.2Z"/>
    <path class="st16" d="M202.4,339.5c0,.1-.7.3-1.6.3s-1.6,0-1.6-.2.7-.3,1.6-.3,1.6,0,1.6.2Z"/>
    <path class="st16" d="M208.7,339.4c0,.1-.7.3-1.6.3s-1.6,0-1.6-.2.7-.3,1.6-.3,1.6,0,1.6.2Z"/>
    <path class="st16" d="M215.1,339.2c0,.1-.7.3-1.6.3s-1.6,0-1.6-.2.7-.3,1.6-.3,1.5,0,1.6.2Z"/>
    <path class="st16" d="M221.4,339c0,.1-.7.3-1.6.3s-1.6,0-1.6-.2.7-.3,1.6-.3,1.6,0,1.6.2Z"/>
    <path class="st16" d="M227.7,338.9c0,.1-.7.3-1.6.3s-1.6,0-1.6-.2.7-.3,1.6-.3,1.6,0,1.6.2Z"/>
    <path class="st16" d="M234,338.8c0,.1-.7.3-1.6.3s-1.6,0-1.6-.2.7-.3,1.6-.3,1.6,0,1.6.2Z"/>
    <path class="st16" d="M240.4,338.6c0,.1-.7.3-1.6.3s-1.6,0-1.6-.2.7-.3,1.6-.3,1.6,0,1.6.2Z"/>
    <path class="st16" d="M246.7,338.5c0,.2-.7.3-1.6.3s-1.6,0-1.6-.2.7-.3,1.6-.3,1.6,0,1.6.2Z"/>
    <path class="st16" d="M246.7,344.2c-.2,0-.2-.7-.1-1.6s.3-1.6.4-1.5.2.7.1,1.6-.3,1.6-.4,1.5Z"/>
    <path class="st16" d="M246.1,350.5c-.1,0-.2-.7-.1-1.6s.3-1.6.4-1.5.2.7.1,1.6-.3,1.6-.4,1.5Z"/>
    <path class="st16" d="M245.4,356.8c-.1,0-.2-.7-.1-1.6s.3-1.6.4-1.5.2.7.1,1.6-.3,1.6-.4,1.5Z"/>
    <path class="st16" d="M244.8,363.1c-.1,0-.2-.7-.1-1.6s.3-1.6.4-1.5.2.7.1,1.6-.3,1.6-.4,1.5Z"/>
    <path class="st16" d="M244.2,369.4c-.1,0-.2-.7-.1-1.6s.3-1.6.4-1.5.2.7.1,1.6-.3,1.6-.4,1.5Z"/>
    <path class="st16" d="M243.6,375.7c-.1,0-.2-.7-.1-1.6s.3-1.6.4-1.5.2.7.1,1.6-.3,1.6-.4,1.5Z"/>
    <path class="st16" d="M243,382c-.2,0-.2-.7-.1-1.6s.3-1.6.4-1.5.2.7.1,1.6-.3,1.5-.4,1.5Z"/>
    <path class="st16" d="M242.4,388.3c-.1,0-.2-.7-.1-1.6s.3-1.6.4-1.5.2.7.1,1.6-.3,1.6-.4,1.5Z"/>
    <path class="st16" d="M241.7,394.6c-.1,0-.2-.7-.1-1.6s.3-1.6.4-1.5.2.7.1,1.6-.3,1.6-.4,1.5Z"/>
    <path class="st16" d="M241.1,400.9c-.1,0-.2-.7-.1-1.6s.3-1.6.4-1.5.2.7.1,1.6-.3,1.6-.4,1.5Z"/>
    <path class="st16" d="M240.5,407.2c-.1,0-.2-.7-.1-1.6s.3-1.6.4-1.5.2.7.1,1.6-.3,1.6-.4,1.5Z"/>
    <path class="st16" d="M239.9,413.5c-.2,0-.2-.7-.1-1.6s.3-1.6.4-1.5.2.7.1,1.6-.3,1.6-.4,1.5Z"/>
    <path class="st16" d="M239.3,419.8c-.1,0-.2-.7-.1-1.6s.3-1.6.4-1.5.2.7.1,1.6-.3,1.6-.4,1.5Z"/>
    <path class="st16" d="M238.6,426.1c-.1,0-.2-.7-.1-1.6s.3-1.6.4-1.5.2.7.1,1.6-.3,1.6-.4,1.5Z"/>
    <path class="st16" d="M238,432.4c-.1,0-.2-.7-.1-1.6s.3-1.6.4-1.5.2.7.1,1.6-.2,1.6-.4,1.5Z"/>
    <path class="st16" d="M237.7,435.8c-.1,0-.3,0-.3-.1s.1,0,.3,0,.3,0,.3.1-.1,0-.3,0Z"/>
    <path class="st6" d="M239.8,344.6c-.6.9-1.3,1.7-2.1,2.4-.7.8-1.6,1.4-2.5,1.9,1.3-1.7,2.9-3.1,4.7-4.3Z"/>
    <path class="st6" d="M242.1,345.8c-1.1.8-2.3,1.4-3.5,1.9-1.2.6-2.4,1.1-3.8,1.4,1.1-.8,2.3-1.4,3.5-1.9,1.2-.6,2.5-1.1,3.8-1.4Z"/>
    <path class="st16" d="M175.3,274.1s-3.4-35.9-9.3-51.6l1.2-.9-1.8-6.2-22.3-2.7.3,4.8c-3.3,1.5-6,4-7.6,7.2-8,16.9-4,36.7-8.3,73.4,0,0-5,17.2.2,22.6l48.6-11.3-2.3-11.1c21.2-.4,56.1-4.3,56.1-4.3l-1-20.1s-52.1.3-53.8.1"/>
    <path class="st0" d="M165.3,215.4c.7,1.3,1.2,2.6,1.6,4,.2.5.4,1.1.4,1.7,0,.3,0,.6-.3.8-.2.2-.4.3-.6.4-.8.3-1.3,0-1.3,0s.5,0,1.1-.4c.3-.2.6-.5.6-.9-.1-.5-.3-1-.5-1.6-.5-1.3-.9-2.7-1.1-4.1Z"/>
    <path class="st6" d="M170.6,242.1c0,.2-9,.3-20,.3s-20-.1-20-.3,9-.3,20-.3,20,.2,20,.3Z"/>
    <path class="st6" d="M168.6,232c0,.1-7.9.3-17.7.3s-17.7-.1-17.7-.3,7.9-.3,17.7-.3,17.7.1,17.7.3Z"/>
    <path class="st6" d="M165.6,223.1c0,.1-6.6.3-14.7.3s-14.6-.1-14.6-.3,6.6-.3,14.6-.3,14.7.2,14.7.3Z"/>
    <path class="st6" d="M165.4,216.8c-3.7.3-7.5.4-11.2.3-3.7,0-7.5,0-11.2-.3,0-.1,5-.3,11.2-.3s11.2.1,11.2.3Z"/>
    <path class="st6" d="M172.1,251.8c0,.1-9.5.3-21.1.3s-21.1-.1-21.1-.3,9.5-.3,21.1-.3,21.1.1,21.1.3Z"/>
    <path class="st6" d="M173.8,261.6c0,.1-9.9.3-22,.3s-22-.1-22-.3,9.9-.3,22-.3,22,.1,22,.3Z"/>
    <path class="st6" d="M174.9,270.6c0,.2-10.1.3-22.6.3s-22.6-.1-22.6-.3,10.1-.3,22.6-.3,22.6.1,22.6.3Z"/>
    <path class="st6" d="M224.1,280.5c0,.1-21.3.3-47.6.3s-47.6-.1-47.6-.3,21.3-.3,47.6-.3,47.6.1,47.6.3Z"/>
    <path class="st6" d="M224.4,288.3c0,.2-21.5.3-47.9.3s-47.9-.1-47.9-.3,21.5-.3,47.9-.3,47.9.1,47.9.3Z"/>
    <path class="st6" d="M173.2,298.1c0,.2-10.2.3-22.9.3s-22.9-.1-22.9-.3,10.2-.3,22.9-.3,22.9.1,22.9.3Z"/>
    <path class="st6" d="M175.6,307.1c0,.1-11.1.3-24.9.3s-24.9-.1-24.9-.3,11.2-.3,24.9-.3,24.9.1,24.9.3Z"/>
    <path class="st6" d="M133.2,309.5c-.2,0-.3-17.5-.3-39.1s.1-39.1.3-39.1.3,17.5.3,39.1-.1,39.1-.3,39.1Z"/>
    <path class="st6" d="M145.2,308.5c-.1,0-.3-21.4-.3-47.8s0-47.8.3-47.8.3,21.4.3,47.8-.1,47.8-.3,47.8Z"/>
    <path class="st6" d="M158.4,307.1c-.1,0-.3-20.6-.3-46s.1-46,.3-46,.3,20.6.3,46-.1,46-.3,46Z"/>
    <path class="st6" d="M169.6,309.4c-.1,0-.3-16.2-.3-36.1s.1-36.1.3-36.1.3,16.2.3,36.1-.1,36.1-.3,36.1Z"/>
    <path class="st6" d="M181.4,274c.1,1.2.2,2.3.1,3.5,0,2.2,0,5.2-.1,8.5s-.2,6.3-.3,8.5c0,1.2-.1,2.3-.3,3.5-.1-1.2-.2-2.3-.1-3.5,0-2.2,0-5.2.1-8.5s.2-6.3.3-8.5c0-1.2,0-2.3.3-3.5Z"/>
    <path class="st6" d="M194,274.5c.1,1.1.2,2.2.1,3.3,0,2,0,4.8-.1,7.9s-.2,5.9-.3,7.9c0,1.1,0,2.2-.3,3.3-.1-1.1-.2-2.2-.1-3.3,0-2,0-4.8.1-7.9s.2-5.9.3-7.9c0-1.1,0-2.2.3-3.3Z"/>
    <path class="st6" d="M206.5,274.2c.1,1.1.2,2.1.1,3.2,0,2,0,4.7-.1,7.7s-.2,5.7-.3,7.7c0,1.1,0,2.1-.3,3.2-.1-1.1-.2-2.1-.1-3.2,0-2,0-4.7.1-7.7s.2-5.7.3-7.7c0-1.1,0-2.1.3-3.2Z"/>
    <path class="st6" d="M219.1,273.9c.1,1,.2,2.1.1,3.1,0,1.9,0,4.5-.1,7.5s-.2,5.5-.3,7.5c0,1,0,2.1-.3,3.1-.1-1-.2-2.1-.1-3.1,0-1.9,0-4.5.1-7.5s.2-5.6.3-7.5c0-1,0-2.1.3-3.1Z"/>
    <path class="st6" d="M170.9,278.6c.9-2.2,2.6-4.1,4.7-5.2-.7.9-1.5,1.8-2.4,2.6-.7.9-1.5,1.8-2.3,2.6Z"/>
    <path class="st6" d="M173.8,278.8c-.4-2,.3-4.2,2-5.5.1.1-.7,1.1-1.3,2.6s-.5,2.8-.7,2.8Z"/>
    <path class="st6" d="M225,293.9c-.6-3.2-.9-6.4-1.1-9.6-.4-3.2-.6-6.4-.6-9.6.6,3.2,1,6.4,1.1,9.6.4,3.2.6,6.4.6,9.6Z"/>
    <path class="st6" d="M225.6,278.5c0,0-.3.3-.3.8,0,.3,0,.5.2.7.2.2.6.3.8.1.3-.1.5-.4.5-.7,0-.3-.2-.5-.4-.7-.4-.3-.8-.2-.8-.3s.4-.4,1,0c.4.2.6.6.7,1,0,.5-.3,1-.8,1.2-.5.2-1.1.1-1.4-.3-.3-.3-.4-.7-.2-1.1.2-.7.7-.8.7-.8Z"/>
    <path class="st6" d="M175.2,274h1c.6.1,1.6.2,2.9.2,2.5.1,6.2.1,10.9.1,9.4,0,22.9-.4,39-1h.2v.2c.3,6.2.7,13,1,20.2v.2h-.2c-2.6.5-5.1.7-7.8,1l-8.1.7c-5.5.5-11.1.9-16.9,1.3l-21.1,1.4h0c-6.1-.4-12.1-2.6-16.2-6.6-2-1.9-3.7-4.3-4.7-6.9-1-2.5-1.8-5-2.4-7.6-2.5-10-4-19.1-5.2-26.7-.6-3.8-1.1-7.2-1.5-10.2-.5-2.5-.8-5.1-.9-7.7,0-1.6.3-3.3,1-4.7.3-.5.6-.9,1-1.3-.4.4-.7.9-.9,1.4-.7,1.5-1,3.1-.9,4.7.2,2.6.5,5.1,1,7.6.5,3,1,6.4,1.6,10.2,1.3,7.5,2.9,16.6,5.4,26.6.6,2.6,1.4,5.1,2.4,7.5,1,2.6,2.6,4.9,4.6,6.8,4,3.9,9.9,6.1,15.9,6.5h0l21.1-1.4,16.9-1.3,8.1-.7c2.6-.3,5.3-.5,7.7-.9l-.2.3c-.3-7.1-.7-14-1-20.2l.2.2c-16.1.6-29.6.9-39,.9-4.7,0-8.4,0-10.9-.2-1.3,0-2.2-.1-2.9-.2h-.7c0,0-.2-.1-.3-.1Z"/>
    <path class="st6" d="M175.2,274c-.2-.5-.4-1-.5-1.6-.3-1-.7-2.5-1.2-4.3-1-3.7-2.1-8.8-3.4-14.4s-2.4-10.8-3.3-14.4l-1-4.4c-.2-.5-.3-1.1-.3-1.6.2.5.4,1,.5,1.6.3,1,.7,2.5,1.2,4.3,1,3.7,2.2,8.8,3.5,14.4,1.3,5.6,2.3,10.7,3.2,14.4.4,1.8.7,3.2,1,4.4.1.5.2,1.1.3,1.6Z"/>
    <path class="st6" d="M165.4,215.8c0,.4,0,.7-.1,1.1-.1.7-.3,1.7-.5,3,0,.7-.2,1.4-.4,2.1-.1.5-.5.8-.9,1-.4.1-.9.1-1.3,0-1.6-.3-3.4-.8-5.3-1.3-3.8-1-7.1-2.1-9.5-2.9l-2.9-.9c-.3,0-.7-.2-1-.4.4,0,.7,0,1.1.2.7.2,1.7.4,2.9.7,2.5.6,5.8,1.7,9.6,2.7,1.9.5,3.6,1,5.3,1.3.4.1.7.1,1.1,0,.3-.1.5-.4.6-.7.2-.6.3-1.4.5-2,.3-1.2.5-2.2.6-2.9,0-.4.1-.8.3-1.1Z"/>
    <polygon class="st6" points="147.9 354.2 154.9 449.1 157.8 448.4 156.7 356.2 147.9 354.2"/>
    <polygon class="st6" points="118.3 357.5 97.1 449 100.9 449 131.3 357.5 118.3 357.5"/>
    <polygon class="st6" points="174.4 357.5 203.4 449 206.5 449 183.5 357.5 174.4 357.5"/>
    <polygon class="st6" points="178.3 363.7 113.4 406.1 113.4 408.4 180.1 363.7 178.3 363.7"/>
    <polygon class="st6" points="123.2 363.7 193.6 411 193.6 407.4 125.3 361.6 123.2 363.7"/>
    <path class="st9" d="M108.6,359.1l83.6-1.5c3,0,5.3-2.5,5.2-5.4,0-.2,0-.4,0-.6h0c-.3-2.7-2.6-4.8-5.4-4.7l-84.8,1.4,1.4,10.9Z"/>
    <g class="st12">
      <path d="M108.6,359.1l83.6-1.5c3,0,5.3-2.5,5.2-5.4,0-.2,0-.4,0-.6h0c-.3-2.7-2.6-4.8-5.4-4.7l-84.8,1.4,1.4,10.9Z"/>
    </g>
    <path class="st9" d="M100.1,294.5l8.4,64.6,65.9-1.6-.2-39.3c0-6.1-4.8-11.1-10.8-11.2-.4,0-.8,0-1.2,0l-50.3,4.5-6.6-68.5-6.7-.6c-2.6-.2-4.8,1.8-5,4.3,0,.3,0,.7,0,1l6.4,46.5Z"/>
  </g>
</svg>